<svg id="Layer_1" data-name="Layer 1" xmlns="http://www.w3.org/2000/svg" viewBox="0 0 1098 316"><defs><style>.cls-1{fill:#fff;}.cls-2{fill:#16ff00;}.cls-3{fill:#00cd00;}.cls-4{fill:#ff1e00;}.cls-5{fill:#b21212;}.cls-6{fill:red;}</style></defs><rect x="0.5" y="0.5" width="1097" height="315"/><path class="cls-1" d="M1097,1V315H1V1H1097m1-1H0V316H1098V0Z"/><rect class="cls-2" x="144.5" y="154.5" width="71" height="26"/><path class="cls-3" d="M215,155v25H145V155h70m1-1H144v27h72V154Z"/><rect class="cls-2" x="225.5" y="154.5" width="71" height="26"/><path class="cls-3" d="M296,155v25H226V155h70m1-1H225v27h72V154Z"/><rect class="cls-2" x="306.5" y="154.5" width="71" height="26"/><path class="cls-3" d="M377,155v25H307V155h70m1-1H306v27h72V154Z"/><rect class="cls-2" x="387.5" y="154.5" width="71" height="26"/><path class="cls-3" d="M458,155v25H388V155h70m1-1H387v27h72V154Z"/><rect class="cls-2" x="468.5" y="154.5" width="71" height="26"/><path class="cls-3" d="M539,155v25H469V155h70m1-1H468v27h72V154Z"/><rect class="cls-2" x="549.5" y="154.5" width="71" height="26"/><path class="cls-3" d="M620,155v25H550V155h70m1-1H549v27h72V154Z"/><rect class="cls-2" x="630.5" y="154.5" width="71" height="26"/><path class="cls-3" d="M701,155v25H631V155h70m1-1H630v27h72V154Z"/><rect class="cls-4" x="711.5" y="154.5" width="71" height="26"/><path class="cls-5" d="M782,155v25H712V155h70m1-1H711v27h72V154Z"/><rect class="cls-2" x="144.5" y="217.5" width="71" height="26"/><path class="cls-3" d="M215,218v25H145V218h70m1-1H144v27h72V217Z"/><rect class="cls-2" x="225.5" y="217.5" width="71" height="26"/><path class="cls-3" d="M296,218v25H226V218h70m1-1H225v27h72V217Z"/><rect class="cls-2" x="306.5" y="217.5" width="71" height="26"/><path class="cls-3" d="M377,218v25H307V218h70m1-1H306v27h72V217Z"/><rect class="cls-2" x="387.5" y="217.5" width="71" height="26"/><path class="cls-3" d="M458,218v25H388V218h70m1-1H387v27h72V217Z"/><rect class="cls-2" x="468.5" y="217.5" width="71" height="26"/><path class="cls-3" d="M539,218v25H469V218h70m1-1H468v27h72V217Z"/><rect class="cls-2" x="549.5" y="217.5" width="71" height="26"/><path class="cls-3" d="M620,218v25H550V218h70m1-1H549v27h72V217Z"/><rect class="cls-2" x="630.5" y="217.5" width="71" height="26"/><path class="cls-3" d="M701,218v25H631V218h70m1-1H630v27h72V217Z"/><rect class="cls-4" x="711.5" y="217.5" width="71" height="26"/><path class="cls-5" d="M782,218v25H712V218h70m1-1H711v27h72V217Z"/><rect class="cls-4" x="792.5" y="217.5" width="71" height="26"/><path class="cls-5" d="M863,218v25H793V218h70m1-1H792v27h72V217Z"/><path class="cls-2" d="M115.2,136h-2.45l.11-2.2h0c-.83,1.73-2.45,2.45-5.43,2.45-2.41,0-4.11-.57-5.11-1.69-1.16-1.26-1.59-3.28-1.59-7.2,0-6.3,1.62-8.42,6.52-8.42a9.23,9.23,0,0,1,4.21.83,2.33,2.33,0,0,1,1.26,1.54l.07,0V112h2.45Zm-10.8-14.11c-.76.76-1.15,2.56-1.15,5.33,0,5.76.79,6.94,4.68,6.94,1.8,0,3-.32,3.7-1s1.12-2.78,1.12-6c0-4.75-1.08-6.08-4.86-6.08A5.46,5.46,0,0,0,104.4,121.89Z"/><path class="cls-2" d="M119.63,112h10.62c3.06,0,4,.14,4.93.72,1.58.94,2.19,2.56,2.19,5.69s-.72,4.21-3.06,5v.07c2.88.68,3.82,2,3.82,5.72,0,3-.79,5-2.3,5.87a9.78,9.78,0,0,1-4.47.9H119.63Zm9.82,10.58c2.27,0,3-.1,3.82-.57,1-.58,1.4-1.51,1.4-3.75,0-2.08-.36-3-1.36-3.56-.58-.29-1.23-.36-3.14-.36h-7.84v8.24Zm-1.36,11.09c4,0,4.93-.07,5.83-.47,1.08-.47,1.51-1.47,1.51-3.71s-.36-3.38-1.26-4-1.22-.58-4.86-.58h-7v8.75Z"/><path class="cls-2" d="M84.76,181.19H80.33L70.26,164.84l-1.62-2.7-.83-1.33L67,159.48h-.08l0,.9v20.81h-2.7v-24h4.43l8.74,14.32,2.31,3.75,1.15,1.87L82,179h.07l0-.9V157.18h2.7Z"/><path class="cls-2" d="M92,167.65H104.2v2.27H92v8.93h12.7v2.34H89.34v-24h15.4v2.34H92Z"/><path class="cls-2" d="M127.35,169.27c.07,1,.07,1.12.07,2.59,0,4.39-.14,5.62-.9,6.91a4.72,4.72,0,0,1-2.91,2.24,26,26,0,0,1-5.94.43c-4.72,0-6.41-.36-8.1-1.77a7,7,0,0,1-2-4.82c0-1.08,0-1.3-.07-6v-1c0-4.32.28-6.16,1.15-7.92a5.36,5.36,0,0,1,4.21-2.81,31.3,31.3,0,0,1,4.53-.22c5.4,0,6.34.15,8,1.19a4.43,4.43,0,0,1,1.8,2.92,21.93,21.93,0,0,1,.14,3.13h-2.66c0-4.64-.44-4.9-7.64-4.9-4.13,0-5.47.4-6.15,1.91-.54,1.19-.68,2.77-.68,7.67,0,6.26.07,7.2.64,8.39.76,1.51,2.23,1.9,7.24,1.9,6.12,0,6.62-.46,6.62-6.12,0-.25,0-.79,0-1.4h-7.64v-2.34Z"/><path class="cls-2" d="M51.76,226.69c0-1.76-.11-2.45-.5-3.09-.65-1-1.77-1.34-5-1.34-3.74,0-5,.22-5.75,1.08a4.62,4.62,0,0,0-.87,3.17c0,2.16.5,3.24,1.73,3.71.79.29,1,.32,5,.5,4.42.22,5.76.47,6.84,1.34,1.26,1,1.72,2.44,1.72,5.32,0,3.28-.57,5-2,5.94s-3.06,1.12-8,1.12c-3.35,0-4.46-.18-5.86-1a4.49,4.49,0,0,1-2-2.92,17.49,17.49,0,0,1-.32-3.78h2.7c0,2.59.07,3.06.54,3.92.64,1.23,1.44,1.41,5.76,1.41,5.79,0,6.4-.51,6.4-5,0-2-.39-2.95-1.47-3.38-.69-.29-.69-.29-5.08-.54s-4.79-.29-6-.83c-2-1-2.74-2.59-2.74-5.62,0-2.8.58-4.5,1.8-5.43,1.37-1.08,3.1-1.41,7.2-1.41,4.54,0,6.37.47,7.49,2,.75,1,1,2.24,1,4.4v.39Z"/><path class="cls-2" d="M61.27,239.11l-1.84,5.08H56.55l8.78-24h3.82l9,24H75.27l-1.87-5.08Zm6-16.74L62,237H72.6Z"/><path class="cls-2" d="M106.88,244.19h-2.7V222.8l0-.72h-.07c-.11.36-.22.62-.32.9s-.18.4-.54,1.34L95.1,244.19H92.37L84.2,224.57l-.47-1.12-.22-.57-.21-.54h-.07l0,.64v21.21h-2.7v-24h4.68l6.41,15.55,1,2.48.5,1.26.5,1.26h.08l.5-1.26.5-1.26,1-2.48,6.37-15.55h4.76Z"/><path class="cls-2" d="M111.45,220.18h10c3.1,0,4,.1,5,.57,2,.87,2.92,3,2.92,6.84,0,3.6-.9,5.62-2.92,6.59-1.11.54-1.29.54-5.43.61h-6.95v9.4h-2.7Zm9.11,12.27c5.32,0,6.19-.65,6.19-4.71,0-3.14-.36-4.32-1.48-4.83-.72-.32-1-.36-3.85-.39h-7.27v9.93Z"/><path class="cls-2" d="M196.39,126.52v2.34h-7.48l0-2.34Z"/><path class="cls-2" d="M205.18,123H206c3.78,0,5.08-.11,5.8-.54s1.19-1.44,1.19-3.35a8.55,8.55,0,0,0-.47-3.31c-.47-1.08-1.48-1.3-5.62-1.3-3.74,0-4.86.29-5.36,1.4-.33.76-.33.8-.36,3.89h-2.59c0-3.27.14-4.1.75-5.22a4.21,4.21,0,0,1,3-2,19.45,19.45,0,0,1,4.68-.36c4.21,0,5.76.29,7.13,1.37,1,.83,1.51,2.34,1.51,4.71,0,4.22-.83,5.37-4,5.8v.11c1.8.25,2.52.5,3.17,1.08.93.82,1.33,2.16,1.33,4.53,0,5.58-1.73,6.91-8.79,6.91-5.32,0-7.3-.61-8.38-2.52-.69-1.22-.76-1.62-.76-5.54h2.63v.9c0,4.57.36,4.82,6.66,4.82,2.81,0,4.28-.25,5-.79s.94-1.87.94-4.17c0-1.59-.25-2.52-.83-3.13s-1.55-.94-4.14-.94h-3.31Z"/><path class="cls-2" d="M236.42,113.31a5.06,5.06,0,0,1,2.16,3.34c.29,1.52.33,2.34.33,7.78,0,7.31-.11,8.17-1.12,9.79a5.23,5.23,0,0,1-3.42,2.2,24,24,0,0,1-4.86.28c-4.17,0-5.43-.21-6.94-1.11a5.11,5.11,0,0,1-2.16-3.35c-.29-1.55-.33-2.3-.33-8,0-7.06.11-8,1.12-9.58a5.22,5.22,0,0,1,3.42-2.19,23.26,23.26,0,0,1,4.89-.29C233.69,112.19,234.91,112.37,236.42,113.31Zm-13.1,3c-.54,1.16-.68,2.7-.68,8.07,0,5.58.11,7.09.68,8.24.65,1.4,2,1.76,6.19,1.76s5.51-.36,6.16-1.76c.58-1.15.68-2.66.68-8.17s-.1-7-.68-8.14c-.65-1.36-2-1.76-6.16-1.76S224,114.89,223.32,116.29Z"/><path class="cls-2" d="M287.4,126.52v2.34h-7.49l0-2.34Z"/><path class="cls-2" d="M306.62,136.45H289.34V132c0-5,1.48-6.15,8.49-6.76,3.5-.4,4.65-.69,5.33-1.26s1-1.91,1-4.47c0-4.1-.9-4.93-5.54-4.93-5.9,0-6.62.5-6.62,4.43,0,.29,0,.86,0,1.69h-2.62c.07-3.71.21-4.75.9-6,1-1.76,3.34-2.48,8.2-2.48,6.48,0,8.21,1.58,8.21,7.6,0,3.16-.5,4.82-1.76,5.94-1.08.93-2.81,1.44-6.55,1.79-5.87.51-6.38.94-6.34,5.87v.79h14.58Z"/><path class="cls-2" d="M327.43,113.31a5.13,5.13,0,0,1,2.16,3.34c.28,1.52.32,2.34.32,7.78,0,7.31-.11,8.17-1.12,9.79a5.23,5.23,0,0,1-3.42,2.2,24,24,0,0,1-4.85.28c-4.18,0-5.44-.21-6.95-1.11a5.11,5.11,0,0,1-2.16-3.35c-.29-1.55-.33-2.3-.33-8,0-7.06.11-8,1.12-9.58a5.22,5.22,0,0,1,3.42-2.19,23.31,23.31,0,0,1,4.9-.29C324.69,112.19,325.91,112.37,327.43,113.31Zm-13.11,3c-.54,1.16-.68,2.7-.68,8.07,0,5.58.11,7.09.68,8.24.65,1.4,2,1.76,6.2,1.76s5.5-.36,6.15-1.76c.58-1.15.68-2.66.68-8.17s-.1-7-.68-8.14c-.65-1.36-2-1.76-6.15-1.76S315,114.89,314.32,116.29Z"/><path class="cls-2" d="M368.4,126.52v2.34h-7.49l0-2.34Z"/><path class="cls-2" d="M382.65,136.45H380v-22l-6.15,6.8-1.7-1.62,6.63-7.2h3.92Z"/><path class="cls-2" d="M408.43,113.31a5.13,5.13,0,0,1,2.16,3.34c.28,1.52.32,2.34.32,7.78,0,7.31-.11,8.17-1.12,9.79a5.23,5.23,0,0,1-3.42,2.2,24,24,0,0,1-4.86.28c-4.17,0-5.43-.21-6.94-1.11a5.11,5.11,0,0,1-2.16-3.35c-.29-1.55-.33-2.3-.33-8,0-7.06.11-8,1.12-9.58a5.22,5.22,0,0,1,3.42-2.19,23.26,23.26,0,0,1,4.89-.29C405.69,112.19,406.91,112.37,408.43,113.31Zm-13.11,3c-.54,1.16-.68,2.7-.68,8.07,0,5.58.11,7.09.68,8.24.65,1.4,2,1.76,6.19,1.76s5.51-.36,6.16-1.76c.58-1.15.68-2.66.68-8.17s-.1-7-.68-8.14c-.65-1.36-2-1.76-6.16-1.76S396,114.89,395.32,116.29Z"/><path class="cls-2" d="M458.4,126.52v2.34h-7.49l0-2.34Z"/><path class="cls-2" d="M477.33,114.71H463.87l-.15,7.31h.08c1.11-1.55,2.48-2,6.4-2,3.24,0,5.19.54,6.45,1.73s1.65,2.77,1.65,6c0,7.42-1.47,8.89-8.78,8.89-4.86,0-6.88-.61-8-2.44-.69-1.08-.79-1.66-.79-4.68h2.55c0,2.23.18,3.13.76,3.74.68.76,2,1,4.78,1s4.22-.18,5.26-.64c1.3-.58,1.51-1.48,1.51-6.12,0-4.47-.93-5.26-6.12-5.26-4.28,0-5.43.43-5.86,2.27h-2.45V112.44h16.16Z"/><path class="cls-2" d="M539.4,126.52v2.34h-7.49l0-2.34Z"/><path class="cls-2" d="M548.18,123H549c3.78,0,5.08-.11,5.8-.54s1.19-1.44,1.19-3.35a8.55,8.55,0,0,0-.47-3.31c-.47-1.08-1.48-1.3-5.62-1.3-3.74,0-4.86.29-5.36,1.4-.32.76-.32.8-.36,3.89h-2.59c0-3.27.14-4.1.75-5.22a4.21,4.21,0,0,1,3-2,19.45,19.45,0,0,1,4.68-.36c4.21,0,5.76.29,7.13,1.37,1,.83,1.51,2.34,1.51,4.71,0,4.22-.83,5.37-4,5.8v.11c1.8.25,2.52.5,3.17,1.08.93.82,1.33,2.16,1.33,4.53,0,5.58-1.73,6.91-8.78,6.91-5.33,0-7.31-.61-8.39-2.52-.69-1.22-.76-1.62-.76-5.54h2.63v.9c0,4.57.36,4.82,6.66,4.82,2.81,0,4.28-.25,5-.79s.94-1.87.94-4.17c0-1.59-.25-2.52-.83-3.13s-1.55-.94-4.14-.94h-3.31Z"/><path class="cls-2" d="M620.4,126.52v2.34h-7.49l0-2.34Z"/><path class="cls-2" d="M634.65,136.45H632v-22l-6.15,6.8-1.7-1.62,6.63-7.2h3.92Z"/><path class="cls-6" d="M710.88,113.31a5.06,5.06,0,0,1,2.16,3.34c.29,1.52.33,2.34.33,7.78,0,7.31-.11,8.17-1.12,9.79a5.23,5.23,0,0,1-3.42,2.2,24.09,24.09,0,0,1-4.86.28c-4.18,0-5.43-.21-7-1.11a5.18,5.18,0,0,1-2.16-3.35c-.28-1.55-.32-2.3-.32-8,0-7.06.11-8,1.12-9.58a5.22,5.22,0,0,1,3.42-2.19,23.14,23.14,0,0,1,4.89-.29C708.15,112.19,709.37,112.37,710.88,113.31Zm-13.1,3c-.54,1.16-.69,2.7-.69,8.07,0,5.58.11,7.09.69,8.24.65,1.4,2,1.76,6.19,1.76s5.51-.36,6.16-1.76c.57-1.15.68-2.66.68-8.17s-.11-7-.68-8.14c-.65-1.36-2-1.76-6.16-1.76S698.43,114.89,697.78,116.29Z"/><path class="cls-6" d="M774.74,125.58h-7.09v-2.27h7.09v-7.16h2.45v7.16h7.09v2.27h-7.09v7.2h-2.45Z"/><path class="cls-6" d="M801.24,136.45h-2.7v-22l-6.16,6.8-1.69-1.62,6.62-7.2h3.93Z"/><path class="cls-6" d="M856.23,125.58h-7.09v-2.27h7.09v-7.16h2.45v7.16h7.09v2.27h-7.09v7.2h-2.45Z"/><path class="cls-6" d="M877.25,123h.87c3.78,0,5.07-.11,5.79-.54.87-.51,1.19-1.44,1.19-3.35a8.37,8.37,0,0,0-.47-3.31c-.47-1.08-1.47-1.3-5.61-1.3-3.75,0-4.86.29-5.37,1.4-.32.76-.32.8-.36,3.89H870.7c0-3.27.14-4.1.76-5.22a4.17,4.17,0,0,1,3-2,19.5,19.5,0,0,1,4.68-.36c4.22,0,5.76.29,7.13,1.37,1,.83,1.51,2.34,1.51,4.71,0,4.22-.82,5.37-4,5.8v.11c1.8.25,2.52.5,3.17,1.08.93.82,1.33,2.16,1.33,4.53,0,5.58-1.73,6.91-8.78,6.91-5.33,0-7.31-.61-8.39-2.52-.68-1.22-.75-1.62-.75-5.54h2.62v.9c0,4.57.36,4.82,6.66,4.82,2.81,0,4.29-.25,5-.79s.93-1.87.93-4.17c0-1.59-.25-2.52-.83-3.13s-1.54-.94-4.14-.94h-3.31Z"/><path class="cls-6" d="M937.23,125.58h-7.09v-2.27h7.09v-7.16h2.45v7.16h7.09v2.27h-7.09v7.2h-2.45Z"/><path class="cls-6" d="M968.4,114.71H954.94L954.8,122h.07c1.11-1.55,2.48-2,6.41-2,3.24,0,5.18.54,6.44,1.73s1.66,2.77,1.66,6c0,7.42-1.48,8.89-8.79,8.89-4.86,0-6.87-.61-8-2.44-.68-1.08-.79-1.66-.79-4.68h2.56c0,2.23.17,3.13.75,3.74.68.76,2,1,4.79,1s4.21-.18,5.25-.64c1.3-.58,1.52-1.48,1.52-6.12,0-4.47-.94-5.26-6.12-5.26-4.29,0-5.44.43-5.87,2.27h-2.45V112.44H968.4Z"/><path class="cls-6" d="M1009.23,125.58h-7.09v-2.27h7.09v-7.16h2.45v7.16h7.09v2.27h-7.09v7.2h-2.45Z"/><path class="cls-6" d="M1035.72,136.45H1033v-22l-6.15,6.8-1.69-1.62,6.62-7.2h3.92Z"/><path class="cls-6" d="M1061.5,113.31a5.1,5.1,0,0,1,2.16,3.34c.29,1.52.32,2.34.32,7.78,0,7.31-.11,8.17-1.11,9.79a5.23,5.23,0,0,1-3.42,2.2,24.16,24.16,0,0,1-4.86.28c-4.18,0-5.44-.21-6.95-1.11a5.14,5.14,0,0,1-2.16-3.35c-.29-1.55-.32-2.3-.32-8,0-7.06.1-8,1.11-9.58a5.22,5.22,0,0,1,3.42-2.19,23.31,23.31,0,0,1,4.9-.29C1058.76,112.19,1060,112.37,1061.5,113.31Zm-13.1,3c-.54,1.16-.69,2.7-.69,8.07,0,5.58.11,7.09.69,8.24.64,1.4,2,1.76,6.19,1.76s5.5-.36,6.15-1.76c.58-1.15.69-2.66.69-8.17s-.11-7-.69-8.14c-.65-1.36-2-1.76-6.15-1.76S1049,114.89,1048.4,116.29Z"/><path class="cls-2" d="M462.72,52.84c.12-6.72,2.22-8.28,11.16-8.28s11.64,2.22,11.64,10V73h-4.08l.3-3-.06-.06c-1.74,2.64-4.08,3.48-9.54,3.48-7.8,0-10.56-2.22-10.56-8.52,0-3.24,1-6.12,2.58-7.26S468.42,56,472.32,56a20.1,20.1,0,0,1,7.08,1,3.09,3.09,0,0,1,1.92,1.86l.12-.06V55.42c0-6.54-1.14-7.68-7.32-7.68-5.64,0-7.32,1-7.32,4.2v.9Zm3.12,11.4c0,4.68,1.26,5.7,7.08,5.7,3.66,0,6.24-.54,7.5-1.62.84-.66,1.2-1.8,1.2-3.54,0-4.26-1.8-5.52-7.92-5.52C467.16,59.26,465.84,60.1,465.84,64.24Z"/><path class="cls-2" d="M496.62,45l-.12,4.26.12.06c1.68-3.36,4.32-4.74,9.18-4.74,4.68,0,7.62,1.56,8.64,4.74h.06c1.86-3.36,4.68-4.74,9.66-4.74,7.26,0,9.9,2.7,9.9,10.14V73H530V54.28c0-4.8-1.44-6.24-6.12-6.24-4.14,0-6.9,1.14-7.8,3.24-.54,1.2-.72,2.7-.72,5.52V73h-4.08V54.7c-.18-3.78-.18-3.78-.54-4.5C510,48.82,508,48,505,48c-6.12,0-8.4,2.46-8.4,9.06V73h-4.08V45Z"/><path class="cls-2" d="M545,45l-.18,3.54.06.06c1.56-2.88,4.14-4,9.24-4,3.78,0,6.84,1,8.34,2.76,1.8,2.1,2.58,5.82,2.58,12.06,0,10.5-2.7,14-10.74,14-5.1,0-7.56-1-9.18-3.72H545V85H541V45Zm2.1,4.44c-1.38,1.2-2,4.44-2,9.72,0,8.7,1.56,10.8,8.16,10.8,6.18,0,7.56-2,7.56-10.74,0-9.36-1.26-11.16-7.86-11.16C550,48,548.22,48.46,547.14,49.42Z"/><path class="cls-2" d="M606,71.2l-3.54-2.34a8.11,8.11,0,0,1-4,3.24c-2.64,1.14-4.44,1.32-11.4,1.32-5.88,0-8-.24-10.5-1.32-3.06-1.32-4.86-4-5.52-8.16-.42-2.64-.48-4.26-.48-12.54,0-8.46.3-10.74,2-13.8,1.32-2.4,3.66-4,7-4.62a59.61,59.61,0,0,1,8-.42c6,0,8.64.3,10.86,1.32,3.42,1.44,5.28,4.44,5.94,9.54a65.06,65.06,0,0,1,.24,7.74c0,9.66-.12,11.7-.72,14.28l4,2.7ZM589,55.6l10.92,7.26a16,16,0,0,0,.18-2.34l.06-1.14V53c0-8.22,0-8.22-.36-10.5-.42-2.76-1.5-4.44-3.36-5.16-1.62-.66-3.36-.84-8.64-.84-7.26,0-9.3.36-10.68,1.92-1.2,1.38-1.74,3.18-2,6.54-.06.84-.06.84-.06,8,0,8.28,0,8.28.36,10.56.42,2.76,1.5,4.44,3.36,5.16,1.62.66,3.36.84,9.42.84,7.5,0,9-.42,10.68-3l-12-7.86Z"/><path class="cls-2" d="M643.32,59.62c0,7.14-.24,8.58-1.92,10.68s-4.38,2.88-9.54,3.06c-1.5.06-3.9.06-6,.06-5.64,0-7.92-.48-10.44-2.16a10.1,10.1,0,0,1-3.72-6.78A94.48,94.48,0,0,1,611,53c0-8.76,0-9.66.42-11.88a9.68,9.68,0,0,1,8.1-8,55.25,55.25,0,0,1,10.26-.6c5,0,6.9.3,8.94,1.44a7.92,7.92,0,0,1,3.78,6.36c.12,1.26.18,2,.3,4.86h-4.5c-.06-4.26-.24-5.46-1-6.72-1-1.62-2.76-2.1-7.68-2.1-5.58,0-9.18.3-10.62.9-2.52,1.14-3.3,3.3-3.3,9.48,0,22.56.06,22.74,11.1,22.74,10.8,0,12-.78,12-7.62V59.62Z"/></svg>